# xmcd
#
# Track frame offsets:
#	150
#	12629
#	25618
#	37706
#	51730
#	62285
#	76598
#	90255
#	102907
#	115133
#	127615
#	140597
#	153473
#	170079
#	178402
#	191917
#
# Disc length: 2729 seconds
#
# Revision: 0
# Processed by: cddbd v1.5.2PL0 Copyright (c) Steve Scherf et al.
# Submitted via: SynApp - FreeCDDB Version: 2.5
#
DISCID=c90aa710
DTITLE=Golden Gate Quartet - Golden Gate Quartet
DYEAR=1962
DGENRE=Blues/Gospel
TTITLE0=Down by the riverside
TTITLE1=Nobody knows the trouble I`ve seen
TTITLE2=St. Louis Blues
TTITLE3=Go down Moses
TTITLE4=Joshua fit the battle of Jericho
TTITLE5=Sometimes I feel like a motherless child
TTITLE6=Amen
TTITLE7=When the Saints go marching in
TTITLE8=God save music
TTITLE9=Lead me to that rock
TTITLE10=Joy to the world
TTITLE11=Hard trials and great tribulations
TTITLE12=It ain`t necessarily so
TTITLE13=Hallelujah
TTITLE14=That big world 
TTITLE15=When you smile
EXTD=
EXTT0=
EXTT1=
EXTT2=
EXTT3=
EXTT4=
EXTT5=
EXTT6=
EXTT7=
EXTT8=
EXTT9=
EXTT10=
EXTT11=
EXTT12=
EXTT13=
EXTT14=
EXTT15=
PLAYORDER=
